<svg xmlns="http://www.w3.org/2000/svg" xmlns:xlink="http://www.w3.org/1999/xlink" width="261" height="243" viewBox="0 0 261 243" fill="none"><rect x="54" y="135" width="117" height="81"   fill="#FFFFFF" ></rect><rect x="126" y="171" width="27" height="72"   fill="#FFFFFF" ></rect><rect x="63" y="207" width="36" height="18"   fill="#FFFFFF" ></rect><rect x="72" y="225" width="36" height="18"   fill="#FFFFFF" ></rect><rect x="0" y="144" width="36" height="36"   fill="#EDDE81" ></rect><rect x="171" y="108" width="36" height="45"   fill="#EDDE81" ></rect><rect x="171" y="108" width="36" height="81"   fill="#EDDE81" ></rect><rect x="171" y="144" width="36" height="27"   fill="#27A967" ></rect><rect x="162" y="180" width="72" height="36"   fill="#EDDE81" ></rect><rect x="27" y="36" width="144" height="99"   fill="#EDDE81" ></rect><rect x="54" y="126" width="117" height="9"   fill="#EDDE81" ></rect><rect x="99" y="135" width="72" height="45"   fill="#EDDE81" ></rect><rect x="144" y="171" width="27" height="45"   fill="#EDDE81" ></rect><rect x="144" y="207" width="18" height="36"   fill="#EDDE81" ></rect><rect x="90" y="207" width="18" height="36"   fill="#EDDE81" ></rect><rect x="18" y="45" width="144" height="81"   fill="#EDDE81" ></rect><rect x="225" y="180" width="36" height="27"   fill="#27A967" ></rect><rect x="225" y="198" width="27" height="18"   fill="#27A967" ></rect><rect x="225" y="108" width="27" height="45"   fill="#EDDE81" ></rect><rect x="234" y="117" width="27" height="27"   fill="#EDDE81" ></rect><rect x="225" y="162" width="36" height="27"   fill="#EDDE81" ></rect><rect x="198" y="135" width="36" height="54"   fill="#EDDE81" ></rect><rect x="162" y="81" width="36" height="36"   fill="#27A967" ></rect><rect x="162" y="36" width="36" height="36"   fill="#27A967" ></rect><rect x="0" y="0" width="126" height="18"   fill="#27A967" ></rect><rect x="9" y="9" width="117" height="18"   fill="#27A967" ></rect><rect x="18" y="18" width="135" height="18"   fill="#27A967" ></rect><rect x="27" y="27" width="126" height="18"   fill="#27A967" ></rect><rect x="198" y="108" width="27" height="36"   fill="#27A967" ></rect><rect x="234" y="135" width="27" height="27"   fill="#27A967" ></rect><rect x="162" y="207" width="72" height="9"   fill="#B19C3E" ></rect><rect x="162" y="108" width="18" height="81"   fill="#317B59" ></rect><rect x="252" y="180" width="9" height="27"   fill="#317B59" ></rect><rect x="225" y="207" width="27" height="9"   fill="#317B59" ></rect><rect x="252" y="153" width="9" height="36"   fill="#B19C3E" ></rect><rect x="252" y="126" width="9" height="36"   fill="#317B59" ></rect><rect x="189" y="108" width="45" height="9"   fill="#317B59" ></rect><rect x="0" y="0" width="126" height="9"   fill="#317B59" ></rect><path d="M0 0L9 0L9 18L0 18L0 0Z"   fill="#317B59" ></path><rect x="27" y="36" width="9" height="9"   fill="#317B59" ></rect><rect x="9" y="18" width="9" height="9"   fill="#317B59" ></rect><rect x="117" y="0" width="9" height="27"   fill="#317B59" ></rect><rect x="117" y="18" width="36" height="9"   fill="#317B59" ></rect><rect x="144" y="18" width="9" height="27"   fill="#317B59" ></rect><rect x="144" y="36" width="54" height="9"   fill="#317B59" ></rect><rect x="189" y="36" width="9" height="36"   fill="#317B59" ></rect><rect x="162" y="63" width="36" height="9"   fill="#317B59" ></rect><rect x="162" y="63" width="9" height="27"   fill="#317B59" ></rect><rect x="162" y="81" width="36" height="9"   fill="#317B59" ></rect><rect x="189" y="81" width="9" height="36"   fill="#317B59" ></rect><rect x="171" y="135" width="9" height="45"   fill="#317B59" ></rect><rect x="171" y="108" width="27" height="9"   fill="#B19C3E" ></rect><rect x="99" y="171" width="36" height="9"   fill="#B19C3E" ></rect><rect x="99" y="144" width="36" height="9"   fill="#B19C3E" ></rect><rect x="99" y="144" width="9" height="36"   fill="#B19C3E" ></rect><rect x="126" y="144" width="9" height="36"   fill="#B19C3E" ></rect><rect x="27" y="144" width="9" height="36"   fill="#B19C3E" ></rect><rect x="0" y="144" width="9" height="36"   fill="#B19C3E" ></rect><rect x="0" y="144" width="36" height="9"   fill="#B19C3E" ></rect><rect x="0" y="171" width="36" height="9"   fill="#B19C3E" ></rect><rect x="225" y="108" width="27" height="9"   fill="#B19C3E" ></rect><rect x="27" y="126" width="36" height="9"   fill="#B19C3E" ></rect><rect x="18" y="45" width="9" height="81"   fill="#B19C3E" ></rect><rect x="252" y="117" width="9" height="18"   fill="#B19C3E" ></rect><rect x="171" y="108" width="9" height="36"   fill="#B19C3E" ></rect><rect x="171" y="171" width="9" height="18"   fill="#B19C3E" ></rect><rect x="171" y="180" width="63" height="9"   fill="#B19C3E" ></rect><rect x="198" y="153" width="18" height="9"   fill="#B19C3E" ></rect><rect x="225" y="153" width="9" height="36"   fill="#B19C3E" ></rect><rect x="153" y="216" width="9" height="27"   fill="#B19C3E" ></rect><rect x="126" y="207" width="9" height="36"   fill="#B19C3E" ></rect><rect x="108" y="207" width="27" height="9"   fill="#B19C3E" ></rect><rect x="99" y="216" width="9" height="27"   fill="#B19C3E" ></rect><rect x="72" y="234" width="36" height="9"   fill="#B19C3E" ></rect><rect x="72" y="225" width="9" height="18"   fill="#B19C3E" ></rect><rect x="63" y="216" width="9" height="9"   fill="#B19C3E" ></rect><rect x="54" y="126" width="9" height="90"   fill="#B19C3E" ></rect><rect x="126" y="234" width="36" height="9"   fill="#B19C3E" ></rect><rect x="18" y="27" width="9" height="9"   fill="#317B59" ></rect><rect x="225" y="180" width="9" height="9"   fill="#317B59" ></rect><rect x="225" y="144" width="9" height="18"   fill="#317B59" ></rect><rect x="198" y="135" width="27" height="9"   fill="#317B59" ></rect><rect x="198" y="135" width="9" height="27"   fill="#317B59" ></rect><rect x="18" y="54" width="45" height="36"   fill="#306D7C" ></rect><rect x="81" y="54" width="45" height="36"   fill="#306D7C" ></rect><rect x="117" y="54" width="18" height="18"   fill="#306D7C" ></rect><rect x="126" y="54" width="18" height="9"   fill="#306D7C" ></rect><rect x="27" y="99" width="27" height="9"   fill="#306D7C" ></rect><rect x="54" y="108" width="18" height="9"   fill="#306D7C" ></rect><rect x="117" y="108" width="9" height="9"   fill="#FAA052" ></rect><rect x="117" y="90" width="9" height="9"   fill="#FAA052" ></rect><rect x="108" y="99" width="9" height="9"   fill="#FAA052" ></rect><rect x="99" y="108" width="9" height="9"   fill="#FAA052" ></rect><rect x="99" y="90" width="9" height="9"   fill="#FAA052" ></rect><rect x="63" y="99" width="9" height="18"   fill="#306D7C" ></rect><rect x="63" y="99" width="18" height="9"   fill="#306D7C" ></rect><rect x="54" y="63" width="36" height="9"   fill="#306D7C" ></rect><rect x="9" y="54" width="18" height="18"   fill="#306D7C" ></rect><rect x="18" y="63" width="9" height="9"   fill="#89FC5F" ></rect><rect x="81" y="63" width="9" height="9"   fill="#89FC5F" ></rect></svg>